<svg width="264" height="32" viewBox="0 0 264 32" fill="none" xmlns="http://www.w3.org/2000/svg">
<path d="M31.632 31.44C27.472 31.44 24.544 30.64 22.848 29.04C21.184 27.408 20.352 25.008 20.352 21.84C20.352 20.944 20.416 20 20.544 19.008C20.672 17.984 20.832 16.896 21.024 15.744C21.632 12.256 22.512 9.36 23.664 7.056C24.816 4.72 26.464 2.96 28.608 1.776C30.752 0.591999 33.6 -9.53674e-07 37.152 -9.53674e-07C37.856 -9.53674e-07 38.688 0.0479994 39.648 0.144C40.608 0.240001 41.536 0.384001 42.432 0.576C43.36 0.768 44.064 0.992 44.544 1.248L41.856 8.592C40.96 8.368 40 8.208 38.976 8.112C37.952 7.984 37.12 7.92 36.48 7.92C35.008 7.92 33.888 8.064 33.12 8.352C32.352 8.64 31.888 9.296 31.728 10.32L29.52 22.896C30.16 23.024 30.768 23.12 31.344 23.184C31.952 23.248 32.528 23.28 33.072 23.28C34.288 23.28 35.52 23.184 36.768 22.992C38.048 22.768 39.184 22.48 40.176 22.128L39.408 30.192C38.288 30.64 37.104 30.96 35.856 31.152C34.64 31.344 33.232 31.44 31.632 31.44ZM25.248 2.304L10.56 0.720001H27.408C27.024 0.944 26.656 1.184 26.304 1.44C25.952 1.696 25.6 1.984 25.248 2.304ZM21.888 7.248L3.936 5.328H22.848C22.688 5.648 22.528 5.968 22.368 6.288C22.208 6.576 22.048 6.896 21.888 7.248ZM20.304 11.904L1.68 9.936H20.88L20.304 11.904ZM19.392 16.56L0.527996 14.544H19.728L19.584 15.504C19.552 15.696 19.52 15.888 19.488 16.08C19.456 16.24 19.424 16.4 19.392 16.56ZM18.912 21.168L-4.05312e-06 19.152H19.056C18.96 19.856 18.912 20.528 18.912 21.168ZM19.296 25.776L0.623996 23.76H18.96C19.024 24.112 19.072 24.464 19.104 24.816C19.168 25.136 19.232 25.456 19.296 25.776ZM21.84 30.192L5.232 28.416H20.4C20.816 29.152 21.296 29.744 21.84 30.192ZM52.0496 30.72L62.7056 5.328H74.6096L76.4816 30.72H68.0816L67.8896 26.832H61.8416L60.3536 30.72H52.0496ZM60.2576 7.392L40.6736 5.328H61.1216L60.2576 7.392ZM58.3376 12.048L38.7056 9.936H59.2016L58.3376 12.048ZM64.3856 19.968H67.8896V12.672H67.2176L64.3856 19.968ZM56.3696 16.656L36.7376 14.544H57.2816L56.3696 16.656ZM54.4496 21.264L34.7696 19.152H55.3136L54.4496 21.264ZM52.4816 25.872L32.8016 23.76H53.3936L52.4816 25.872ZM50.5136 30.528L30.8336 28.416H51.4256L50.5136 30.528ZM90.7515 30.72L93.9195 12.528H88.5915L89.8875 5.328H108.847L107.551 12.528H102.368L99.1995 30.72H90.7515ZM87.9675 7.488L67.6155 5.328H88.3035L87.9675 7.488ZM87.1515 12.096L66.7995 9.936H87.5355L87.1515 12.096ZM91.7595 16.704L71.4075 14.544H92.1435L91.7595 16.704ZM90.9435 21.312L70.5915 19.152H91.3275L90.9435 21.312ZM90.1275 25.92L69.7755 23.76H90.5115L90.1275 25.92ZM89.3115 30.576L68.9595 28.416H89.6955L89.3115 30.576ZM114.356 30.72L125.012 5.328H136.916L138.788 30.72H130.388L130.196 26.832H124.148L122.66 30.72H114.356ZM122.564 7.392L102.98 5.328H123.428L122.564 7.392ZM120.644 12.048L101.012 9.936H121.508L120.644 12.048ZM126.692 19.968H130.196V12.672H129.524L126.692 19.968ZM118.676 16.656L99.0439 14.544H119.588L118.676 16.656ZM116.756 21.264L97.0759 19.152H117.62L116.756 21.264ZM114.788 25.872L95.1079 23.76H115.7L114.788 25.872ZM112.82 30.528L93.1399 28.416H113.732L112.82 30.528ZM151.007 30.72L155.423 5.328H163.871L160.655 23.664H167.855L166.607 30.72H151.007ZM153.503 7.488L133.151 5.328H153.839L153.503 7.488ZM152.687 12.096L132.335 9.936H153.071L152.687 12.096ZM151.871 16.704L131.519 14.544H152.255L151.871 16.704ZM151.055 21.312L130.703 19.152H151.439L151.055 21.312ZM150.239 25.92L129.887 23.76H150.623L150.239 25.92ZM149.423 30.576L129.071 28.416H149.807L149.423 30.576ZM180.821 30.72L182.069 23.472L178.325 5.328H186.581L187.637 14.544H187.925L191.909 5.328H200.309L190.133 23.472L188.933 30.72H180.821ZM177.317 7.488L156.965 5.328H176.885L177.317 7.488ZM178.277 12.096L157.925 9.936H177.845L178.277 12.096ZM179.237 16.704L158.885 14.544H178.805L179.237 16.704ZM180.197 21.312L159.845 19.152H179.717L180.197 21.312ZM180.197 25.92L159.845 23.76H180.581L180.197 25.92ZM179.381 30.576L159.029 28.416H179.765L179.381 30.576ZM217.758 31.296C216.254 31.296 214.718 31.216 213.15 31.056C211.614 30.896 210.094 30.608 208.59 30.192L210.942 23.088C213.438 23.792 215.838 24.144 218.142 24.144C218.718 24.144 219.262 24.144 219.774 24.144C220.318 24.112 220.878 24.064 221.454 24L221.694 22.464L218.67 22.128C216.014 21.84 214.158 21.216 213.102 20.256C212.046 19.296 211.518 17.984 211.518 16.32C211.518 15.968 211.534 15.584 211.566 15.168C211.63 14.752 211.694 14.336 211.758 13.92C212.174 11.616 212.798 9.808 213.63 8.496C214.494 7.184 215.694 6.256 217.23 5.712C218.798 5.136 220.846 4.848 223.374 4.848C226.414 4.848 229.278 5.184 231.966 5.856L229.662 12.864C228.542 12.608 227.518 12.416 226.59 12.288C225.662 12.16 224.654 12.096 223.566 12.096C222.958 12.096 222.462 12.112 222.078 12.144C221.694 12.144 221.23 12.176 220.686 12.24L220.446 13.632L222.846 13.92C225.662 14.24 227.646 14.96 228.798 16.08C229.982 17.2 230.574 18.608 230.574 20.304C230.574 20.592 230.558 20.896 230.526 21.216C230.494 21.536 230.446 21.856 230.382 22.176C229.998 24.384 229.39 26.112 228.558 27.36C227.726 28.608 226.734 29.52 225.582 30.096C224.43 30.64 223.182 30.976 221.838 31.104C220.494 31.232 219.134 31.296 217.758 31.296ZM212.622 7.344L193.902 5.328H214.59C214.206 5.616 213.838 5.92 213.486 6.24C213.166 6.56 212.878 6.928 212.622 7.344ZM210.654 12.096L190.59 9.936H211.278C211.15 10.256 211.038 10.608 210.942 10.992C210.846 11.344 210.75 11.712 210.654 12.096ZM210.078 16.704L189.726 14.544H210.174C210.142 14.832 210.11 15.136 210.078 15.456C210.078 15.744 210.078 16.032 210.078 16.32V16.704ZM211.902 21.312L191.598 19.152H210.51C210.798 19.984 211.262 20.704 211.902 21.312ZM208.494 25.872L188.478 23.76H209.166L208.494 25.872ZM206.958 30.576L186.894 28.416H207.63L206.958 30.576ZM245.767 30.72L248.935 12.528H243.607L244.903 5.328H263.863L262.567 12.528H257.383L254.215 30.72H245.767ZM242.983 7.488L222.631 5.328H243.319L242.983 7.488ZM242.167 12.096L221.815 9.936H242.551L242.167 12.096ZM246.775 16.704L226.423 14.544H247.159L246.775 16.704ZM245.959 21.312L225.607 19.152H246.343L245.959 21.312ZM245.143 25.92L224.791 23.76H245.527L245.143 25.92ZM244.327 30.576L223.975 28.416H244.711L244.327 30.576Z" fill="#192A56"/>
</svg>
