<svg width="108" height="97" viewBox="0 0 108 97" fill="none" xmlns="http://www.w3.org/2000/svg">
<path d="M91.375 32.25C86.8958 32.25 83.0885 30.6823 79.9531 27.5469C76.8177 24.4115 75.25 20.6042 75.25 16.125C75.25 11.6458 76.8177 7.83854 79.9531 4.70312C83.0885 1.56771 86.8958 0 91.375 0C95.8542 0 99.6615 1.56771 102.797 4.70312C105.932 7.83854 107.5 11.6458 107.5 16.125C107.5 20.6042 105.932 24.4115 102.797 27.5469C99.6615 30.6823 95.8542 32.25 91.375 32.25ZM10.75 96.75C7.79375 96.75 5.26302 95.6974 3.15781 93.5922C1.0526 91.487 0 88.9563 0 86V21.5C0 18.5437 1.0526 16.013 3.15781 13.9078C5.26302 11.8026 7.79375 10.75 10.75 10.75H65.0375C64.6792 12.5417 64.5 14.3333 64.5 16.125C64.5 17.9167 64.6792 19.7083 65.0375 21.5C65.6646 24.3667 66.6948 27.0318 68.1281 29.4953C69.5615 31.9589 71.3083 34.1313 73.3688 36.0125L53.75 48.375L10.75 21.5V32.25L53.75 59.125L82.1031 41.3875C83.626 41.925 85.149 42.3281 86.6719 42.5969C88.1948 42.8656 89.7625 43 91.375 43C94.2417 43 97.0635 42.5521 99.8406 41.6562C102.618 40.7604 105.171 39.4167 107.5 37.625V86C107.5 88.9563 106.447 91.487 104.342 93.5922C102.237 95.6974 99.7063 96.75 96.75 96.75H10.75Z" fill="#393E46"/>
</svg>
